<svg xmlns="http://www.w3.org/2000/svg" width="1400" height="860" viewBox="0 0 1400 860" role="img" aria-label="Mynote app preview">
  <defs>
    <linearGradient id="bg" x1="0" y1="0" x2="1" y2="1">
      <stop offset="0" stop-color="#fff2f7"/>
      <stop offset="0.55" stop-color="#f7fbff"/>
      <stop offset="1" stop-color="#fff8ee"/>
    </linearGradient>
    <linearGradient id="accent" x1="0" y1="0" x2="1" y2="1">
      <stop offset="0" stop-color="#df70a5"/>
      <stop offset="1" stop-color="#75c8b2"/>
    </linearGradient>
    <filter id="shadow" x="-20%" y="-20%" width="140%" height="140%">
      <feDropShadow dx="0" dy="28" stdDeviation="34" flood-color="#8b5872" flood-opacity="0.18"/>
    </filter>
  </defs>
  <rect width="1400" height="860" fill="url(#bg)"/>
  <circle cx="170" cy="70" r="190" fill="#ffb8cf" opacity="0.35"/>
  <circle cx="1190" cy="120" r="220" fill="#99cce9" opacity="0.32"/>
  <g filter="url(#shadow)">
    <rect x="36" y="42" width="360" height="776" rx="28" fill="#ffffff" opacity="0.72" stroke="#e7d4dc"/>
    <text x="72" y="100" font-family="Segoe UI, Microsoft YaHei, sans-serif" font-size="16" font-weight="700" letter-spacing="2" fill="#b73573">PRIVATE DIARY</text>
    <text x="72" y="152" font-family="Georgia, serif" font-size="50" font-weight="700" fill="#302633">Mynote</text>
    <rect x="310" y="102" width="58" height="58" rx="18" fill="url(#accent)"/>
    <text x="329" y="143" font-family="Segoe UI, sans-serif" font-size="38" fill="#fff">+</text>
    <text x="72" y="215" font-family="Segoe UI, Microsoft YaHei, sans-serif" font-size="18" fill="#7f6d83">搜索</text>
    <rect x="72" y="232" width="292" height="48" rx="18" fill="#fff" stroke="#e6d5dd"/>
    <text x="92" y="263" font-family="Segoe UI, Microsoft YaHei, sans-serif" font-size="20" fill="#a4919d">标题或正文关键词</text>
    <g font-family="Segoe UI, Microsoft YaHei, sans-serif" font-size="18">
      <rect x="72" y="315" width="64" height="42" rx="21" fill="url(#accent)"/>
      <text x="91" y="342" fill="#fff">全部</text>
      <rect x="150" y="315" width="64" height="42" rx="21" fill="#fff" stroke="#e6d5dd"/>
      <text x="169" y="342" fill="#302633">日记</text>
      <rect x="228" y="315" width="64" height="42" rx="21" fill="#fff" stroke="#e6d5dd"/>
      <text x="247" y="342" fill="#302633">摘抄</text>
      <rect x="72" y="372" width="64" height="42" rx="21" fill="#fff" stroke="#e6d5dd"/>
      <text x="91" y="399" fill="#302633">学习</text>
      <rect x="150" y="372" width="64" height="42" rx="21" fill="#fff" stroke="#e6d5dd"/>
      <text x="169" y="399" fill="#302633">项目</text>
      <rect x="228" y="372" width="64" height="42" rx="21" fill="#fff" stroke="#e6d5dd"/>
      <text x="247" y="399" fill="#302633">情绪</text>
    </g>
    <g font-family="Segoe UI, Microsoft YaHei, sans-serif">
      <rect x="72" y="455" width="292" height="82" rx="18" fill="#fff" stroke="#e6d5dd"/>
      <text x="92" y="492" font-size="22" font-weight="700" fill="#302633">2026/6/17 今天的记录</text>
      <text x="92" y="522" font-size="17" fill="#7f6d83">日记</text>
      <text x="248" y="522" font-size="17" fill="#7f6d83">已保存</text>
      <rect x="72" y="555" width="292" height="82" rx="18" fill="#fff" stroke="#f49ac2"/>
      <text x="92" y="592" font-size="22" font-weight="700" fill="#302633">2026/6/17 摘抄片段</text>
      <text x="92" y="622" font-size="17" fill="#7f6d83">摘抄</text>
      <text x="248" y="622" font-size="17" fill="#7f6d83">置顶</text>
    </g>
  </g>
  <g filter="url(#shadow)">
    <rect x="430" y="42" width="920" height="86" rx="28" fill="#fff" opacity="0.78" stroke="#e7d4dc"/>
    <text x="470" y="86" font-family="Segoe UI, Microsoft YaHei, sans-serif" font-size="24" font-weight="700" fill="#b73573">已载入</text>
    <text x="470" y="112" font-family="Segoe UI, Microsoft YaHei, sans-serif" font-size="17" fill="#7f6d83">本地 SQLite 保存</text>
    <rect x="1160" y="62" width="80" height="46" rx="18" fill="#fff" stroke="#e6d5dd"/>
    <text x="1188" y="92" font-family="Segoe UI, sans-serif" font-size="24" fill="#302633">18</text>
    <rect x="1255" y="62" width="70" height="46" rx="18" fill="#fff" stroke="#e6d5dd"/>
    <text x="1275" y="92" font-family="Segoe UI, Microsoft YaHei, sans-serif" font-size="20" fill="#302633">蔷薇</text>
    <rect x="430" y="155" width="920" height="663" rx="30" fill="#fff" opacity="0.85" stroke="#e7d4dc"/>
    <rect x="470" y="195" width="165" height="48" rx="18" fill="#fff" stroke="#e6d5dd"/>
    <text x="495" y="226" font-family="Segoe UI, Microsoft YaHei, sans-serif" font-size="22" fill="#302633">日记</text>
    <rect x="650" y="195" width="78" height="48" rx="24" fill="#fff" stroke="#e6d5dd"/>
    <text x="671" y="226" font-family="Segoe UI, Microsoft YaHei, sans-serif" font-size="22" fill="#302633">置顶</text>
    <text x="470" y="325" font-family="Georgia, serif" font-size="68" font-weight="700" fill="#302633">今天的记录</text>
    <rect x="470" y="360" width="840" height="66" rx="20" fill="#fff" stroke="#e6d5dd"/>
    <g font-family="Segoe UI, Microsoft YaHei, sans-serif" font-size="22" fill="#302633">
      <text x="495" y="402" font-weight="700">B</text>
      <text x="550" y="402" font-style="italic">I</text>
      <text x="602" y="402">列表</text>
      <text x="690" y="402">摘抄</text>
      <text x="790" y="402">分割线</text>
      <text x="910" y="402">清除</text>
    </g>
    <rect x="470" y="448" width="840" height="320" rx="24" fill="#fff" stroke="#f49ac2" stroke-width="2"/>
    <line x1="500" y1="520" x2="1280" y2="520" stroke="#f2edf0"/>
    <line x1="500" y1="582" x2="1280" y2="582" stroke="#f2edf0"/>
    <line x1="500" y1="644" x2="1280" y2="644" stroke="#f2edf0"/>
    <text x="510" y="502" font-family="Segoe UI, Microsoft YaHei, sans-serif" font-size="26" font-weight="700" fill="#302633">打开就能写，自动保存，只留在本地。</text>
    <text x="510" y="565" font-family="Segoe UI, Microsoft YaHei, sans-serif" font-size="22" fill="#7f6d83">适合日记、摘抄、想法和轻量项目记录。</text>
  </g>
</svg>

